<svg version="1.1" id="Layer_1" xmlns="http://www.w3.org/2000/svg" xmlns:xlink="http://www.w3.org/1999/xlink" x="0px" y="0px"
	 width="100%" viewBox="0 0 128 128" enable-background="new 0 0 128 128" xml:space="preserve">
<rect width="100%" height="100%" rx="25" ry="25" fill="#111827"/>
<path fill="#ffffff" opacity="1.000000" stroke="none"
	d="
M31.675421,118.053589 
	C29.975142,108.518661 28.217098,99.405930 26.870996,90.232742 
	C26.426809,87.205788 25.170856,86.355667 22.372786,86.292191 
	C18.788235,86.210861 15.114985,86.948006 11.247479,85.587975 
	C12.696327,81.139336 15.605778,79.384445 19.899960,79.689087 
	C24.266594,79.998871 25.631775,79.044037 25.249586,73.787895 
	C24.349346,61.407173 22.759253,48.577934 27.264091,36.687378 
	C31.679523,25.032808 39.729347,16.064632 52.097256,11.772944 
	C62.035610,8.324320 72.108879,9.214972 82.088692,10.882725 
	C87.858757,11.846974 92.501846,15.553124 95.259155,20.732176 
	C97.688919,25.296021 92.730263,26.276690 90.912628,28.498323 
	C89.586464,28.563696 89.022499,27.991205 88.464333,27.340439 
	C79.614105,17.021852 65.187813,13.886456 52.120594,17.632200 
	C36.957306,21.978786 32.779346,33.032200 32.340824,46.161903 
	C32.024796,55.624081 32.088318,65.098709 33.282825,74.537247 
	C33.733154,78.095581 35.039043,79.907242 38.959595,79.740486 
	C44.779747,79.492943 50.619503,79.612686 56.448673,79.710159 
	C59.373058,79.759056 60.920929,79.135841 62.234856,75.851700 
	C65.380516,67.989143 69.161621,60.191383 77.485657,56.246716 
	C85.571480,52.414925 94.045914,51.619701 101.703758,56.541973 
	C109.834480,61.768200 113.381363,72.683960 111.126648,81.663811 
	C110.130074,85.632820 105.773239,88.308907 101.801880,87.446548 
	C91.420540,85.192299 80.901405,86.767105 70.452698,86.364784 
	C67.675606,86.257851 67.047501,87.910385 67.531342,90.301163 
	C69.433884,99.702065 76.396896,109.909058 87.609436,109.824394 
	C91.365295,109.796036 95.138817,110.842323 98.888176,111.490433 
	C105.809555,112.686836 112.971169,109.210655 116.974907,102.768257 
	C118.701126,99.990601 120.486549,97.166718 124.344788,96.392853 
	C125.256439,99.987686 123.215652,102.436615 121.401253,104.564056 
	C113.182320,114.201027 103.887833,121.434105 89.957108,117.550972 
	C87.117424,116.759422 84.059372,116.750427 81.101669,116.383247 
	C68.362846,114.801735 59.841007,105.588280 59.902161,92.534454 
	C59.926697,87.295815 58.173790,85.841614 53.260624,86.240578 
	C48.460434,86.630371 43.605190,86.351700 38.774132,86.347618 
	C36.641056,86.345810 35.049923,86.997681 35.439434,89.504234 
	C36.633030,97.185165 37.192230,104.979607 39.303856,112.499367 
	C41.149982,119.073662 40.401054,121.000633 34.140739,124.701218 
	C31.950081,123.165283 33.035694,120.340233 31.675421,118.053589 
M100.527031,69.045692 
	C97.344124,64.640800 93.751022,60.726551 87.873306,60.367451 
	C76.089470,59.647518 71.597664,63.494473 68.961899,75.307922 
	C68.109879,79.126617 69.456863,79.693237 72.544563,79.677513 
	C79.873512,79.640198 87.202858,79.687561 94.532043,79.685760 
	C105.196861,79.683136 105.196861,79.677544 100.527031,69.045692 
z"/>
</svg>